<mxfile host="Electron" modified="2024-05-09T14:09:53.000Z" agent="Mozilla/5.0 (Windows NT 10.0; Win64; x64) AppleWebKit/537.36 (KHTML, like Gecko) draw.io/24.2.5 Chrome/120.0.6099.109 Electron/28.1.0 Safari/537.36" etag="L0X_eU-f4aNmqPFolmvK" version="24.2.5" type="device">
  <diagram name="第 1 页" id="VGetV-blzMCB5gs2P7la">
    <mxGraphModel dx="2074" dy="1205" grid="1" gridSize="10" guides="1" tooltips="1" connect="1" arrows="1" fold="1" page="1" pageScale="1" pageWidth="827" pageHeight="1169" math="0" shadow="0">
      <root>
        <mxCell id="0" />
        <mxCell id="1" parent="0" />
        <mxCell id="lKoeeoKcMWWjzTY6-UFA-66" value="" style="rounded=0;whiteSpace=wrap;html=1;fillColor=#ffe6cc;strokeColor=#d79b00;" vertex="1" parent="1">
          <mxGeometry x="120" y="380" width="720" height="370" as="geometry" />
        </mxCell>
        <mxCell id="lKoeeoKcMWWjzTY6-UFA-3" value="" style="shape=table;startSize=0;container=1;collapsible=0;childLayout=tableLayout;fontSize=16;" vertex="1" parent="1">
          <mxGeometry x="150" y="480" width="180" height="40" as="geometry" />
        </mxCell>
        <mxCell id="lKoeeoKcMWWjzTY6-UFA-4" value="" style="shape=tableRow;horizontal=0;startSize=0;swimlaneHead=0;swimlaneBody=0;strokeColor=inherit;top=0;left=0;bottom=0;right=0;collapsible=0;dropTarget=0;fillColor=none;points=[[0,0.5],[1,0.5]];portConstraint=eastwest;fontSize=16;" vertex="1" parent="lKoeeoKcMWWjzTY6-UFA-3">
          <mxGeometry width="180" height="40" as="geometry" />
        </mxCell>
        <mxCell id="lKoeeoKcMWWjzTY6-UFA-5" value="Cluster" style="shape=partialRectangle;html=1;whiteSpace=wrap;connectable=0;strokeColor=#d6b656;overflow=hidden;fillColor=#fff2cc;top=0;left=0;bottom=0;right=0;pointerEvents=1;fontSize=16;" vertex="1" parent="lKoeeoKcMWWjzTY6-UFA-4">
          <mxGeometry width="60" height="40" as="geometry">
            <mxRectangle width="60" height="40" as="alternateBounds" />
          </mxGeometry>
        </mxCell>
        <mxCell id="lKoeeoKcMWWjzTY6-UFA-6" value="Cluster" style="shape=partialRectangle;html=1;whiteSpace=wrap;connectable=0;strokeColor=#d6b656;overflow=hidden;fillColor=#fff2cc;top=0;left=0;bottom=0;right=0;pointerEvents=1;fontSize=16;" vertex="1" parent="lKoeeoKcMWWjzTY6-UFA-4">
          <mxGeometry x="60" width="60" height="40" as="geometry">
            <mxRectangle width="60" height="40" as="alternateBounds" />
          </mxGeometry>
        </mxCell>
        <mxCell id="lKoeeoKcMWWjzTY6-UFA-7" value="Cluster" style="shape=partialRectangle;html=1;whiteSpace=wrap;connectable=0;strokeColor=#d6b656;overflow=hidden;fillColor=#fff2cc;top=0;left=0;bottom=0;right=0;pointerEvents=1;fontSize=16;" vertex="1" parent="lKoeeoKcMWWjzTY6-UFA-4">
          <mxGeometry x="120" width="60" height="40" as="geometry">
            <mxRectangle width="60" height="40" as="alternateBounds" />
          </mxGeometry>
        </mxCell>
        <mxCell id="lKoeeoKcMWWjzTY6-UFA-21" value="" style="shape=table;startSize=0;container=1;collapsible=0;childLayout=tableLayout;fontSize=16;" vertex="1" parent="1">
          <mxGeometry x="390" y="480" width="180" height="40" as="geometry" />
        </mxCell>
        <mxCell id="lKoeeoKcMWWjzTY6-UFA-22" value="" style="shape=tableRow;horizontal=0;startSize=0;swimlaneHead=0;swimlaneBody=0;strokeColor=inherit;top=0;left=0;bottom=0;right=0;collapsible=0;dropTarget=0;fillColor=none;points=[[0,0.5],[1,0.5]];portConstraint=eastwest;fontSize=16;" vertex="1" parent="lKoeeoKcMWWjzTY6-UFA-21">
          <mxGeometry width="180" height="40" as="geometry" />
        </mxCell>
        <mxCell id="lKoeeoKcMWWjzTY6-UFA-23" value="Cluster" style="shape=partialRectangle;html=1;whiteSpace=wrap;connectable=0;strokeColor=#82b366;overflow=hidden;fillColor=#d5e8d4;top=0;left=0;bottom=0;right=0;pointerEvents=1;fontSize=16;" vertex="1" parent="lKoeeoKcMWWjzTY6-UFA-22">
          <mxGeometry width="60" height="40" as="geometry">
            <mxRectangle width="60" height="40" as="alternateBounds" />
          </mxGeometry>
        </mxCell>
        <mxCell id="lKoeeoKcMWWjzTY6-UFA-24" value="Cluster" style="shape=partialRectangle;html=1;whiteSpace=wrap;connectable=0;strokeColor=#82b366;overflow=hidden;fillColor=#d5e8d4;top=0;left=0;bottom=0;right=0;pointerEvents=1;fontSize=16;" vertex="1" parent="lKoeeoKcMWWjzTY6-UFA-22">
          <mxGeometry x="60" width="60" height="40" as="geometry">
            <mxRectangle width="60" height="40" as="alternateBounds" />
          </mxGeometry>
        </mxCell>
        <mxCell id="lKoeeoKcMWWjzTY6-UFA-25" value="Cluster" style="shape=partialRectangle;html=1;whiteSpace=wrap;connectable=0;strokeColor=#82b366;overflow=hidden;fillColor=#d5e8d4;top=0;left=0;bottom=0;right=0;pointerEvents=1;fontSize=16;" vertex="1" parent="lKoeeoKcMWWjzTY6-UFA-22">
          <mxGeometry x="120" width="60" height="40" as="geometry">
            <mxRectangle width="60" height="40" as="alternateBounds" />
          </mxGeometry>
        </mxCell>
        <mxCell id="lKoeeoKcMWWjzTY6-UFA-26" value="" style="shape=table;startSize=0;container=1;collapsible=0;childLayout=tableLayout;fontSize=16;" vertex="1" parent="1">
          <mxGeometry x="620" y="480" width="180" height="40" as="geometry" />
        </mxCell>
        <mxCell id="lKoeeoKcMWWjzTY6-UFA-27" value="" style="shape=tableRow;horizontal=0;startSize=0;swimlaneHead=0;swimlaneBody=0;strokeColor=inherit;top=0;left=0;bottom=0;right=0;collapsible=0;dropTarget=0;fillColor=none;points=[[0,0.5],[1,0.5]];portConstraint=eastwest;fontSize=16;" vertex="1" parent="lKoeeoKcMWWjzTY6-UFA-26">
          <mxGeometry width="180" height="40" as="geometry" />
        </mxCell>
        <mxCell id="lKoeeoKcMWWjzTY6-UFA-28" value="Cluster" style="shape=partialRectangle;html=1;whiteSpace=wrap;connectable=0;strokeColor=#b85450;overflow=hidden;fillColor=#f8cecc;top=0;left=0;bottom=0;right=0;pointerEvents=1;fontSize=16;" vertex="1" parent="lKoeeoKcMWWjzTY6-UFA-27">
          <mxGeometry width="60" height="40" as="geometry">
            <mxRectangle width="60" height="40" as="alternateBounds" />
          </mxGeometry>
        </mxCell>
        <mxCell id="lKoeeoKcMWWjzTY6-UFA-29" value="Cluster" style="shape=partialRectangle;html=1;whiteSpace=wrap;connectable=0;strokeColor=#b85450;overflow=hidden;fillColor=#f8cecc;top=0;left=0;bottom=0;right=0;pointerEvents=1;fontSize=16;" vertex="1" parent="lKoeeoKcMWWjzTY6-UFA-27">
          <mxGeometry x="60" width="60" height="40" as="geometry">
            <mxRectangle width="60" height="40" as="alternateBounds" />
          </mxGeometry>
        </mxCell>
        <mxCell id="lKoeeoKcMWWjzTY6-UFA-30" value="Cluster" style="shape=partialRectangle;html=1;whiteSpace=wrap;connectable=0;strokeColor=#b85450;overflow=hidden;fillColor=#f8cecc;top=0;left=0;bottom=0;right=0;pointerEvents=1;fontSize=16;" vertex="1" parent="lKoeeoKcMWWjzTY6-UFA-27">
          <mxGeometry x="120" width="60" height="40" as="geometry">
            <mxRectangle width="60" height="40" as="alternateBounds" />
          </mxGeometry>
        </mxCell>
        <mxCell id="lKoeeoKcMWWjzTY6-UFA-31" value="" style="shape=table;startSize=0;container=1;collapsible=0;childLayout=tableLayout;fontSize=16;" vertex="1" parent="1">
          <mxGeometry x="210" y="570" width="120" height="40" as="geometry" />
        </mxCell>
        <mxCell id="lKoeeoKcMWWjzTY6-UFA-32" value="" style="shape=tableRow;horizontal=0;startSize=0;swimlaneHead=0;swimlaneBody=0;strokeColor=inherit;top=0;left=0;bottom=0;right=0;collapsible=0;dropTarget=0;fillColor=none;points=[[0,0.5],[1,0.5]];portConstraint=eastwest;fontSize=16;" vertex="1" parent="lKoeeoKcMWWjzTY6-UFA-31">
          <mxGeometry width="120" height="40" as="geometry" />
        </mxCell>
        <mxCell id="lKoeeoKcMWWjzTY6-UFA-33" value="Cluster" style="shape=partialRectangle;html=1;whiteSpace=wrap;connectable=0;strokeColor=#d6b656;overflow=hidden;fillColor=#fff2cc;top=0;left=0;bottom=0;right=0;pointerEvents=1;fontSize=16;" vertex="1" parent="lKoeeoKcMWWjzTY6-UFA-32">
          <mxGeometry width="60" height="40" as="geometry">
            <mxRectangle width="60" height="40" as="alternateBounds" />
          </mxGeometry>
        </mxCell>
        <mxCell id="lKoeeoKcMWWjzTY6-UFA-34" value="Cluster" style="shape=partialRectangle;html=1;whiteSpace=wrap;connectable=0;strokeColor=#d6b656;overflow=hidden;fillColor=#fff2cc;top=0;left=0;bottom=0;right=0;pointerEvents=1;fontSize=16;" vertex="1" parent="lKoeeoKcMWWjzTY6-UFA-32">
          <mxGeometry x="60" width="60" height="40" as="geometry">
            <mxRectangle width="60" height="40" as="alternateBounds" />
          </mxGeometry>
        </mxCell>
        <mxCell id="lKoeeoKcMWWjzTY6-UFA-36" value="" style="shape=table;startSize=0;container=1;collapsible=0;childLayout=tableLayout;fontSize=16;" vertex="1" parent="1">
          <mxGeometry x="430" y="570" width="120" height="40" as="geometry" />
        </mxCell>
        <mxCell id="lKoeeoKcMWWjzTY6-UFA-37" value="" style="shape=tableRow;horizontal=0;startSize=0;swimlaneHead=0;swimlaneBody=0;strokeColor=inherit;top=0;left=0;bottom=0;right=0;collapsible=0;dropTarget=0;fillColor=none;points=[[0,0.5],[1,0.5]];portConstraint=eastwest;fontSize=16;" vertex="1" parent="lKoeeoKcMWWjzTY6-UFA-36">
          <mxGeometry width="120" height="40" as="geometry" />
        </mxCell>
        <mxCell id="lKoeeoKcMWWjzTY6-UFA-38" value="Cluster" style="shape=partialRectangle;html=1;whiteSpace=wrap;connectable=0;strokeColor=#b85450;overflow=hidden;fillColor=#f8cecc;top=0;left=0;bottom=0;right=0;pointerEvents=1;fontSize=16;" vertex="1" parent="lKoeeoKcMWWjzTY6-UFA-37">
          <mxGeometry width="60" height="40" as="geometry">
            <mxRectangle width="60" height="40" as="alternateBounds" />
          </mxGeometry>
        </mxCell>
        <mxCell id="lKoeeoKcMWWjzTY6-UFA-39" value="Cluster" style="shape=partialRectangle;html=1;whiteSpace=wrap;connectable=0;strokeColor=#b85450;overflow=hidden;fillColor=#f8cecc;top=0;left=0;bottom=0;right=0;pointerEvents=1;fontSize=16;" vertex="1" parent="lKoeeoKcMWWjzTY6-UFA-37">
          <mxGeometry x="60" width="60" height="40" as="geometry">
            <mxRectangle width="60" height="40" as="alternateBounds" />
          </mxGeometry>
        </mxCell>
        <mxCell id="lKoeeoKcMWWjzTY6-UFA-40" value="" style="shape=table;startSize=0;container=1;collapsible=0;childLayout=tableLayout;fontSize=16;" vertex="1" parent="1">
          <mxGeometry x="650" y="570" width="120" height="40" as="geometry" />
        </mxCell>
        <mxCell id="lKoeeoKcMWWjzTY6-UFA-41" value="" style="shape=tableRow;horizontal=0;startSize=0;swimlaneHead=0;swimlaneBody=0;strokeColor=inherit;top=0;left=0;bottom=0;right=0;collapsible=0;dropTarget=0;fillColor=none;points=[[0,0.5],[1,0.5]];portConstraint=eastwest;fontSize=16;" vertex="1" parent="lKoeeoKcMWWjzTY6-UFA-40">
          <mxGeometry width="120" height="40" as="geometry" />
        </mxCell>
        <mxCell id="lKoeeoKcMWWjzTY6-UFA-42" value="Cluster" style="shape=partialRectangle;html=1;whiteSpace=wrap;connectable=0;strokeColor=#82b366;overflow=hidden;fillColor=#d5e8d4;top=0;left=0;bottom=0;right=0;pointerEvents=1;fontSize=16;" vertex="1" parent="lKoeeoKcMWWjzTY6-UFA-41">
          <mxGeometry width="60" height="40" as="geometry">
            <mxRectangle width="60" height="40" as="alternateBounds" />
          </mxGeometry>
        </mxCell>
        <mxCell id="lKoeeoKcMWWjzTY6-UFA-43" value="Cluster" style="shape=partialRectangle;html=1;whiteSpace=wrap;connectable=0;strokeColor=#82b366;overflow=hidden;fillColor=#d5e8d4;top=0;left=0;bottom=0;right=0;pointerEvents=1;fontSize=16;" vertex="1" parent="lKoeeoKcMWWjzTY6-UFA-41">
          <mxGeometry x="60" width="60" height="40" as="geometry">
            <mxRectangle width="60" height="40" as="alternateBounds" />
          </mxGeometry>
        </mxCell>
        <mxCell id="lKoeeoKcMWWjzTY6-UFA-44" value="" style="shape=table;startSize=0;container=1;collapsible=0;childLayout=tableLayout;fontSize=16;fillColor=#e1d5e7;strokeColor=#9673a6;" vertex="1" parent="1">
          <mxGeometry x="330" y="670" width="120" height="40" as="geometry" />
        </mxCell>
        <mxCell id="lKoeeoKcMWWjzTY6-UFA-45" value="" style="shape=tableRow;horizontal=0;startSize=0;swimlaneHead=0;swimlaneBody=0;strokeColor=inherit;top=0;left=0;bottom=0;right=0;collapsible=0;dropTarget=0;fillColor=none;points=[[0,0.5],[1,0.5]];portConstraint=eastwest;fontSize=16;" vertex="1" parent="lKoeeoKcMWWjzTY6-UFA-44">
          <mxGeometry width="120" height="40" as="geometry" />
        </mxCell>
        <mxCell id="lKoeeoKcMWWjzTY6-UFA-46" value="Cluster" style="shape=partialRectangle;html=1;whiteSpace=wrap;connectable=0;strokeColor=#9673a6;overflow=hidden;fillColor=#e1d5e7;top=0;left=0;bottom=0;right=0;pointerEvents=1;fontSize=16;" vertex="1" parent="lKoeeoKcMWWjzTY6-UFA-45">
          <mxGeometry width="60" height="40" as="geometry">
            <mxRectangle width="60" height="40" as="alternateBounds" />
          </mxGeometry>
        </mxCell>
        <mxCell id="lKoeeoKcMWWjzTY6-UFA-47" value="Cluster" style="shape=partialRectangle;html=1;whiteSpace=wrap;connectable=0;strokeColor=#9673a6;overflow=hidden;fillColor=#e1d5e7;top=0;left=0;bottom=0;right=0;pointerEvents=1;fontSize=16;" vertex="1" parent="lKoeeoKcMWWjzTY6-UFA-45">
          <mxGeometry x="60" width="60" height="40" as="geometry">
            <mxRectangle width="60" height="40" as="alternateBounds" />
          </mxGeometry>
        </mxCell>
        <mxCell id="lKoeeoKcMWWjzTY6-UFA-48" value="" style="shape=table;startSize=0;container=1;collapsible=0;childLayout=tableLayout;fontSize=16;fillColor=#e1d5e7;strokeColor=#9673a6;" vertex="1" parent="1">
          <mxGeometry x="570" y="670" width="120" height="40" as="geometry" />
        </mxCell>
        <mxCell id="lKoeeoKcMWWjzTY6-UFA-49" value="" style="shape=tableRow;horizontal=0;startSize=0;swimlaneHead=0;swimlaneBody=0;strokeColor=inherit;top=0;left=0;bottom=0;right=0;collapsible=0;dropTarget=0;fillColor=none;points=[[0,0.5],[1,0.5]];portConstraint=eastwest;fontSize=16;" vertex="1" parent="lKoeeoKcMWWjzTY6-UFA-48">
          <mxGeometry width="120" height="40" as="geometry" />
        </mxCell>
        <mxCell id="lKoeeoKcMWWjzTY6-UFA-50" value="Cluster" style="shape=partialRectangle;html=1;whiteSpace=wrap;connectable=0;strokeColor=#6c8ebf;overflow=hidden;fillColor=#dae8fc;top=0;left=0;bottom=0;right=0;pointerEvents=1;fontSize=16;" vertex="1" parent="lKoeeoKcMWWjzTY6-UFA-49">
          <mxGeometry width="60" height="40" as="geometry">
            <mxRectangle width="60" height="40" as="alternateBounds" />
          </mxGeometry>
        </mxCell>
        <mxCell id="lKoeeoKcMWWjzTY6-UFA-51" value="Cluster" style="shape=partialRectangle;html=1;whiteSpace=wrap;connectable=0;strokeColor=#6c8ebf;overflow=hidden;fillColor=#dae8fc;top=0;left=0;bottom=0;right=0;pointerEvents=1;fontSize=16;" vertex="1" parent="lKoeeoKcMWWjzTY6-UFA-49">
          <mxGeometry x="60" width="60" height="40" as="geometry">
            <mxRectangle width="60" height="40" as="alternateBounds" />
          </mxGeometry>
        </mxCell>
        <mxCell id="lKoeeoKcMWWjzTY6-UFA-52" value="" style="shape=curlyBracket;whiteSpace=wrap;html=1;rounded=1;flipH=1;labelPosition=right;verticalLabelPosition=middle;align=left;verticalAlign=middle;direction=south;" vertex="1" parent="1">
          <mxGeometry x="150" y="460" width="180" height="20" as="geometry" />
        </mxCell>
        <mxCell id="lKoeeoKcMWWjzTY6-UFA-53" value="" style="shape=curlyBracket;whiteSpace=wrap;html=1;rounded=1;flipH=1;labelPosition=right;verticalLabelPosition=middle;align=left;verticalAlign=middle;direction=south;" vertex="1" parent="1">
          <mxGeometry x="390" y="460" width="180" height="20" as="geometry" />
        </mxCell>
        <mxCell id="lKoeeoKcMWWjzTY6-UFA-54" value="" style="shape=curlyBracket;whiteSpace=wrap;html=1;rounded=1;flipH=1;labelPosition=right;verticalLabelPosition=middle;align=left;verticalAlign=middle;direction=south;" vertex="1" parent="1">
          <mxGeometry x="620" y="460" width="180" height="20" as="geometry" />
        </mxCell>
        <mxCell id="lKoeeoKcMWWjzTY6-UFA-55" value="Cluster Group" style="text;html=1;align=center;verticalAlign=middle;whiteSpace=wrap;rounded=0;fontSize=15;" vertex="1" parent="1">
          <mxGeometry x="170" y="420" width="150" height="30" as="geometry" />
        </mxCell>
        <mxCell id="lKoeeoKcMWWjzTY6-UFA-56" value="Cluster Group" style="text;html=1;align=center;verticalAlign=middle;whiteSpace=wrap;rounded=0;fontSize=15;" vertex="1" parent="1">
          <mxGeometry x="405" y="420" width="150" height="30" as="geometry" />
        </mxCell>
        <mxCell id="lKoeeoKcMWWjzTY6-UFA-57" value="Cluster Group" style="text;html=1;align=center;verticalAlign=middle;whiteSpace=wrap;rounded=0;fontSize=15;" vertex="1" parent="1">
          <mxGeometry x="635" y="420" width="150" height="30" as="geometry" />
        </mxCell>
        <mxCell id="lKoeeoKcMWWjzTY6-UFA-58" value="" style="endArrow=classic;html=1;rounded=0;exitX=0.5;exitY=1;exitDx=0;exitDy=0;" edge="1" parent="1" source="lKoeeoKcMWWjzTY6-UFA-3" target="lKoeeoKcMWWjzTY6-UFA-32">
          <mxGeometry width="50" height="50" relative="1" as="geometry">
            <mxPoint x="390" y="640" as="sourcePoint" />
            <mxPoint x="440" y="590" as="targetPoint" />
          </mxGeometry>
        </mxCell>
        <mxCell id="lKoeeoKcMWWjzTY6-UFA-59" value="" style="endArrow=classic;html=1;rounded=0;exitX=0.5;exitY=1;exitDx=0;exitDy=0;" edge="1" parent="1" source="lKoeeoKcMWWjzTY6-UFA-21">
          <mxGeometry width="50" height="50" relative="1" as="geometry">
            <mxPoint x="250" y="530" as="sourcePoint" />
            <mxPoint x="260" y="570" as="targetPoint" />
          </mxGeometry>
        </mxCell>
        <mxCell id="lKoeeoKcMWWjzTY6-UFA-60" value="" style="endArrow=classic;html=1;rounded=0;exitX=0.567;exitY=1.083;exitDx=0;exitDy=0;exitPerimeter=0;entryX=0.489;entryY=0;entryDx=0;entryDy=0;entryPerimeter=0;" edge="1" parent="1" source="lKoeeoKcMWWjzTY6-UFA-27" target="lKoeeoKcMWWjzTY6-UFA-37">
          <mxGeometry width="50" height="50" relative="1" as="geometry">
            <mxPoint x="250" y="530" as="sourcePoint" />
            <mxPoint x="271" y="580" as="targetPoint" />
          </mxGeometry>
        </mxCell>
        <mxCell id="lKoeeoKcMWWjzTY6-UFA-61" value="" style="endArrow=classic;html=1;rounded=0;exitX=0.585;exitY=1.083;exitDx=0;exitDy=0;exitPerimeter=0;" edge="1" parent="1" source="lKoeeoKcMWWjzTY6-UFA-27" target="lKoeeoKcMWWjzTY6-UFA-41">
          <mxGeometry width="50" height="50" relative="1" as="geometry">
            <mxPoint x="732" y="533" as="sourcePoint" />
            <mxPoint x="499" y="580" as="targetPoint" />
          </mxGeometry>
        </mxCell>
        <mxCell id="lKoeeoKcMWWjzTY6-UFA-62" value="" style="endArrow=classic;html=1;rounded=0;exitX=0.5;exitY=1;exitDx=0;exitDy=0;entryX=0.55;entryY=0;entryDx=0;entryDy=0;entryPerimeter=0;" edge="1" parent="1" target="lKoeeoKcMWWjzTY6-UFA-45">
          <mxGeometry width="50" height="50" relative="1" as="geometry">
            <mxPoint x="270" y="610" as="sourcePoint" />
            <mxPoint x="291" y="660" as="targetPoint" />
          </mxGeometry>
        </mxCell>
        <mxCell id="lKoeeoKcMWWjzTY6-UFA-63" value="" style="endArrow=classic;html=1;rounded=0;exitX=0.5;exitY=1;exitDx=0;exitDy=0;entryX=0.522;entryY=0;entryDx=0;entryDy=0;entryPerimeter=0;" edge="1" parent="1" source="lKoeeoKcMWWjzTY6-UFA-36" target="lKoeeoKcMWWjzTY6-UFA-45">
          <mxGeometry width="50" height="50" relative="1" as="geometry">
            <mxPoint x="280" y="620" as="sourcePoint" />
            <mxPoint x="406" y="680" as="targetPoint" />
          </mxGeometry>
        </mxCell>
        <mxCell id="lKoeeoKcMWWjzTY6-UFA-64" value="" style="endArrow=classic;html=1;rounded=0;exitX=0.5;exitY=1;exitDx=0;exitDy=0;entryX=0.45;entryY=-0.067;entryDx=0;entryDy=0;entryPerimeter=0;" edge="1" parent="1" source="lKoeeoKcMWWjzTY6-UFA-40" target="lKoeeoKcMWWjzTY6-UFA-49">
          <mxGeometry width="50" height="50" relative="1" as="geometry">
            <mxPoint x="500" y="620" as="sourcePoint" />
            <mxPoint x="403" y="680" as="targetPoint" />
          </mxGeometry>
        </mxCell>
        <mxCell id="lKoeeoKcMWWjzTY6-UFA-65" value="" style="endArrow=classic;html=1;rounded=0;exitX=0.5;exitY=1;exitDx=0;exitDy=0;entryX=0.533;entryY=0;entryDx=0;entryDy=0;entryPerimeter=0;" edge="1" parent="1" source="lKoeeoKcMWWjzTY6-UFA-36" target="lKoeeoKcMWWjzTY6-UFA-49">
          <mxGeometry width="50" height="50" relative="1" as="geometry">
            <mxPoint x="720" y="620" as="sourcePoint" />
            <mxPoint x="634" y="677" as="targetPoint" />
          </mxGeometry>
        </mxCell>
      </root>
    </mxGraphModel>
  </diagram>
</mxfile>
